# xmcd
#
# Track frame offsets:
#	150
#	14473
#	33083
#	48616
#	63748
#	77329
#	90610
#	110671
#	126601
#	144671
#
# Disc length: 2183 seconds
#
# Revision: 0
# Processed by: cddbd v1.5.2PL0 Copyright (c) Steve Scherf et al.
# Submitted via: EasyCDDAExtractor 10.0.2.1
#
DISCID=8a08850a
DTITLE=Sue Marchant - Fool
DYEAR=2006
DGENRE=
TTITLE0=Fool
TTITLE1=To The Lighthouse
TTITLE2=Virginia In The Fall
TTITLE3=Sarah, Sing Me The Blues
TTITLE4=Stage Plays
TTITLE5=Virtually Unreal
TTITLE6=The Homecoming
TTITLE7=Vignette From The Edge
TTITLE8=J'Attends
TTITLE9=Those Who Lose
EXTD=
EXTT0=
EXTT1=
EXTT2=
EXTT3=
EXTT4=
EXTT5=
EXTT6=
EXTT7=
EXTT8=
EXTT9=
PLAYORDER=
